<svg xmlns="http://www.w3.org/2000/svg" data-name="Layer 1" viewBox="0 0 420 420"><defs><clipPath id="a"><path d="M4.6 14.8h410.7v390.4H4.6z" style="fill:none;stroke-width:0"/></clipPath></defs><g style="clip-path:url(#a)"><path d="M42.1 263.3v-27.1h31.3v54.1H33.3v53.8h33.5v32.5h53.8v-40.1h54.1v31.3h-27.1v37.5h38.1v-26.6h229.7v-11H185.7v-42.3h-65v-24.2h23.9v-35.9h-34.8v24.4H84.6v-64.5H42.3V14.8h-11v210.5H4.6v38.1h37.5Zm132.6 131h-16.1v-15.6h16.1zm-90.3-93.1h24.7v24.2H84.4zm-40.1 31.9v-31.8h29.1v31.8zm65.3 32.4H77.8v-29.1h31.8zm11-89.2h12.9v13.4h-12.9zm-105-40.1h15.6v16.1H15.6z" style="stroke-width:0;fill:#c0902c"/></g></svg>