<svg xmlns="http://www.w3.org/2000/svg" data-name="Layer 1" viewBox="0 0 420 420"><defs><clipPath id="a"><path d="M14.8 4.6h390.4v410.7H14.8z" style="fill:none;stroke-width:0"/></clipPath></defs><g style="clip-path:url(#a)"><path d="M263.3 377.9h-27.1v-31.3h54.1v40.1h53.8v-33.5h32.5v-53.8h-40.1v-54.1h31.3v27.1h37.5v-38.1h-26.6V4.6h-11v229.7h-42.3v65h-24.2v-23.9h-35.9v34.9h24.4v25.2h-64.5v42.3H14.8v11h210.5v26.6h38.1v-37.5Zm131-132.6v16.1h-15.6v-16.1zm-93.1 90.3v-24.7h24.2v24.7zm31.9 40.1h-31.8v-29.1h31.8zm32.4-65.3v31.8h-29.1v-31.9h29.1Zm-89.2-11v-12.9h13.4v12.9zm-40.1 105v-15.6h16.1v15.6z" style="stroke-width:0;fill:#c0902c"/></g></svg>