<svg xmlns="http://www.w3.org/2000/svg" xmlns:xlink="http://www.w3.org/1999/xlink" data-name="Layer 1" viewBox="0 0 1100 350"><defs><linearGradient id="c" x1="12.9" x2="1089.1" y1="163.4" y2="163.4" gradientUnits="userSpaceOnUse"><stop offset="0" stop-color="#b98948"/><stop offset="0" stop-color="#e6bd72"/><stop offset=".2" stop-color="#b98948"/><stop offset=".6" stop-color="#b98948"/><stop offset=".7" stop-color="#f8d18f"/><stop offset=".8" stop-color="#c69654"/><stop offset=".9" stop-color="#c69654"/><stop offset="1" stop-color="#f8d18f"/><stop offset="1" stop-color="#c69654"/></linearGradient><linearGradient id="a" x1="233.1" x2="233.1" y1="5.9" y2="245.4" gradientUnits="userSpaceOnUse"><stop offset="0" stop-color="#015738"/><stop offset="0" stop-color="#015134"/><stop offset=".4" stop-color="#023f29"/><stop offset=".7" stop-color="#023322"/><stop offset="1" stop-color="#033020"/></linearGradient><linearGradient id="b" x1="233.1" x2="233.1" y1="75.7" y2="32.2" gradientUnits="userSpaceOnUse"><stop offset="0" stop-color="#975a37"/><stop offset="0" stop-color="#9a5e39"/><stop offset="0" stop-color="#b5804d"/><stop offset=".1" stop-color="#ca9a5d"/><stop offset=".2" stop-color="#d9ad69"/><stop offset=".2" stop-color="#e3b96f"/><stop offset=".3" stop-color="#e6bd72"/><stop offset=".7" stop-color="#b98948"/><stop offset=".9" stop-color="#f8d18f"/><stop offset="1" stop-color="#c69654"/></linearGradient><linearGradient xlink:href="#a" id="e" x1="571.8" x2="571.8" y1="5.9" y2="245.4"/><linearGradient xlink:href="#b" id="f" x1="571.8" x2="571.8" y1="75.7" y2="32.2"/><linearGradient xlink:href="#a" id="g" x1="690.3" x2="690.3" y1="5.9" y2="245.4"/><linearGradient xlink:href="#b" id="h" x1="690.3" x2="690.3" y1="75.7" y2="32.2"/><linearGradient xlink:href="#a" id="i" x1="879.6" x2="879.6" y1="5.9" y2="245.4"/><linearGradient xlink:href="#b" id="j" x1="879.6" x2="879.6" y1="78.7" y2="29.2"/><linearGradient xlink:href="#a" id="k" x1="998.1" x2="998.1" y1="5.9" y2="245.4"/><linearGradient xlink:href="#b" id="l" x1="998.1" x2="998.1" y1="78.7" y2="29.2"/><linearGradient id="m" x1="551" x2="551" y1="5.9" y2="280.9" gradientUnits="userSpaceOnUse"><stop offset="0" stop-color="#015638"/><stop offset=".2" stop-color="#004e33"/><stop offset=".6" stop-color="#00472e"/><stop offset=".7" stop-color="#013f29"/><stop offset=".8" stop-color="#023322"/><stop offset="1" stop-color="#033020"/></linearGradient><linearGradient xlink:href="#b" id="n" x1="551" x2="551" y1="261" y2="4.9"/><filter id="d" filterUnits="userSpaceOnUse"><feOffset dy="11"/><feGaussianBlur result="blur" stdDeviation="7"/><feFlood flood-color="#000" flood-opacity=".8"/><feComposite in2="blur" operator="in"/><feComposite in="SourceGraphic"/></filter></defs><path d="M1089.1 205.7v-.5c0-21.6-6.5-34.4-19.4-38.1l-3.8-1.1v4c0 12.2-1.7 23-5 31.9-4.5 11.8-11.2 17.6-20.5 17.6s-11.2-2.5-15.2-7.6c-3.3-4.1-5.1-8.7-5.3-14.1v-57c0-4.3-.6-8.3-1.8-12.1 3.2-4.2 4.8-9.1 4.8-14.6v-59c0-6.8-2.4-12.7-7.3-17.5-4.8-4.8-10.7-7.3-17.5-7.3s-12.4 2.4-17.3 7.2-7.4 10.7-7.4 17.5v59c0 4.3 1 8.3 3 11.8v55.7h-34.2v-41c0-5.8-2.1-10.9-6.4-15.1-4.2-4.2-9.4-6.4-15.4-6.4h-16.5c.3-1.6.5-3.3.5-5V55c0-6.8-2.5-12.7-7.4-17.5s-10.7-7.2-17.3-7.2-12.7 2.4-17.5 7.3c-4.8 4.8-7.3 10.7-7.3 17.5v59q0 2.85.6 5.4c-7.1 1-13.4 3.8-18.9 8.3V65h.1V6h-3c-11.1 0-20.8 4-28.8 11.9-8.1 7.9-12.2 17.5-12.2 28.6v135h-15.2c-3.2-7.5-8.4-12.3-15.5-14.4l-3.8-1.1v4c0 11.7-1.6 22-4.6 30.7l-7.7 13.3c-3.7 3.7-8 5.5-13.2 5.5s-11.2-2.5-15.2-7.6c-3.3-4.1-5.1-8.7-5.3-14.1v-57q0-8.4-3-15.6 3-4.95 3-11.1v-59c0-6-2.1-11.1-6.4-15.4-4.2-4.2-9.4-6.4-15.4-6.4s-10.9 2.1-15.2 6.4c-4.3 4.2-6.5 9.4-6.5 15.4v126.4h-34.2v-41c0-5.8-2.1-10.9-6.4-15.1-4.2-4.2-9.4-6.4-15.4-6.4h-19.6c.4-1.6.6-3.3.6-5V55c0-6-2.2-11.2-6.5-15.4s-9.4-6.4-15.2-6.4-11.1 2.1-15.4 6.4c-4.2 4.2-6.4 9.4-6.4 15.4v59q0 2.7.6 5.1c-8.3.6-15.7 3.5-22 8.6V64.9h.1v-59h-3c-11.1 0-20.8 4-28.8 11.9-8.1 7.9-12.2 17.5-12.2 28.6v135h-44.5V96.9h-6c0 7.2-5.8 12.7-17.8 16.9-9.5 3.4-19.3 5.1-29.2 5.1h-16.8c-16.6 0-30.6 7.1-41.9 21.1-9 11.4-14.7 25.3-17 41.4h-39.4v-40.7c0-6-2.1-11.1-6.4-15.4-3.4-3.4-7.3-5.4-11.8-6.1.4-1.7.6-3.5.6-5.3v-59c0-6-2.1-11.1-6.4-15.4-4.2-4.2-9.4-6.4-15.4-6.4s-11.2 2.1-15.4 6.4c-4.2 4.2-6.4 9.4-6.4 15.4v59c0 1.7.2 3.4.6 5h-20.1c-9.7 0-18.1 2.9-25.3 8.7l-.2-121.7h-3c-10.9 0-20.5 4-28.5 12s-12 17.6-12 28.5v62h.2v73H94.6l-15.7 26.9c-.7 1.2-1.5 2.3-2.4 3.5-3.9 5.1-8.9 7.6-15.1 7.6-9.2 0-15.9-5.8-20.4-17.6-3.4-8.9-5.1-19.7-5.1-31.9v-4l-3.8 1.1c-12.9 3.7-19.4 16.6-19.4 38.1v59c0 15.8 4.8 29.4 14.2 40.2 9.6 11 22.4 16.5 38.3 16.5s23.9-3.6 33.5-10.6c9.1-6.6 16-15.5 20.5-26.4h46.9l.2-62.5h62.3v62.5h446c4.5 10.9 11.4 19.8 20.5 26.4 9.6 7 20.9 10.6 33.5 10.6s28.7-5.6 38.3-16.5c5.2-6 9.1-12.9 11.4-20.5h204c4.5 10.9 11.4 19.8 20.5 26.4 9.6 7 20.9 10.6 33.5 10.6s28.7-5.6 38.3-16.5c9.4-10.8 14.2-24.4 14.2-40.2v-58.5Z" style="fill:url(#c);filter:url(#d);stroke-width:0"/><path d="M233.1 72.7c5.2 0 9.6-1.8 13.2-5.5 3.7-3.7 5.5-8.1 5.5-13.2s-1.8-9.6-5.5-13.2c-3.7-3.7-8.1-5.5-13.2-5.5s-9.6 1.8-13.2 5.5c-3.7 3.7-5.5 8.1-5.5 13.2s1.8 9.6 5.5 13.2c3.7 3.7 8.1 5.5 13.2 5.5Z" style="stroke-linecap:round;stroke-miterlimit:10;stroke-width:6px;fill:url(#a);stroke:url(#b)"/><path d="M571.8 72.7c5 0 9.4-1.8 13.1-5.5 3.8-3.7 5.6-8.1 5.6-13.2s-1.9-9.6-5.6-13.2c-3.8-3.7-8.1-5.5-13.1-5.5s-9.6 1.8-13.2 5.5-5.5 8.1-5.5 13.2 1.8 9.6 5.5 13.2c3.7 3.7 8.1 5.5 13.2 5.5Z" style="fill:url(#e);stroke:url(#f);stroke-linecap:round;stroke-miterlimit:10;stroke-width:6px"/><path d="M690.3 72.7c5.2 0 9.6-1.8 13.2-5.5S709 59.1 709 54s-1.8-9.6-5.5-13.2c-3.7-3.7-8.1-5.5-13.2-5.5s-9.4 1.8-13.1 5.5c-3.8 3.7-5.6 8.1-5.6 13.2s1.9 9.6 5.6 13.2c3.8 3.7 8.1 5.5 13.1 5.5Z" style="stroke-linecap:round;stroke-miterlimit:10;stroke-width:6px;fill:url(#g);stroke:url(#h)"/><path d="M879.6 72.7c5 0 9.4-1.8 13.1-5.5 3.8-3.7 5.6-8.1 5.6-13.2s-1.9-9.6-5.6-13.2c-3.8-3.7-8.1-5.5-13.1-5.5s-9.6 1.8-13.2 5.5-5.5 8.1-5.5 13.2 1.8 9.6 5.5 13.2c3.7 3.7 8.1 5.5 13.2 5.5" style="stroke-width:0;fill:url(#i)"/><path d="M879.6 35.2c5 0 9.4 1.8 13.1 5.5 3.8 3.7 5.6 8.1 5.6 13.2s-1.9 9.6-5.6 13.2c-3.8 3.7-8.1 5.5-13.1 5.5s-9.6-1.8-13.2-5.5c-3.7-3.7-5.5-8.1-5.5-13.2s1.8-9.6 5.5-13.2c3.7-3.7 8.1-5.5 13.2-5.5m0-6c-6.8 0-12.7 2.4-17.5 7.3-4.8 4.8-7.3 10.7-7.3 17.5s2.4 12.7 7.3 17.5c4.8 4.8 10.7 7.3 17.5 7.3s12.4-2.4 17.3-7.2 7.4-10.7 7.4-17.5-2.5-12.7-7.4-17.5-10.7-7.2-17.3-7.2Z" style="stroke-width:0;fill:url(#j)"/><path d="M998.1 72.7c5.2 0 9.6-1.8 13.2-5.5s5.5-8.1 5.5-13.2-1.8-9.6-5.5-13.2c-3.7-3.7-8.1-5.5-13.2-5.5s-9.4 1.8-13.1 5.5c-3.8 3.7-5.6 8.1-5.6 13.2s1.9 9.6 5.6 13.2c3.8 3.7 8.1 5.5 13.1 5.5" style="stroke-width:0;fill:url(#k)"/><path d="M998.1 35.2c5.2 0 9.6 1.8 13.2 5.5 3.7 3.7 5.5 8.1 5.5 13.2s-1.8 9.6-5.5 13.2c-3.7 3.7-8.1 5.5-13.2 5.5s-9.4-1.8-13.1-5.5c-3.8-3.7-5.6-8.1-5.6-13.2s1.9-9.6 5.6-13.2c3.8-3.7 8.1-5.5 13.1-5.5m0-6c-6.6 0-12.4 2.4-17.3 7.2s-7.4 10.7-7.4 17.5 2.5 12.7 7.4 17.5 10.7 7.2 17.3 7.2 12.7-2.4 17.5-7.3c4.8-4.8 7.3-10.7 7.3-17.5s-2.4-12.7-7.3-17.5c-4.8-4.8-10.7-7.3-17.5-7.3Z" style="stroke-width:0;fill:url(#l)"/><path d="M1068.8 168.9c0 12.7-1.8 23.7-5.2 33-5 13-12.8 19.5-23.2 19.5s-13-2.9-17.5-8.8c-4.3-5.3-6.3-11.6-6-18.8v-54.2c0-10.3-3.7-19.2-11-26.5s-16.2-11-26.5-11v81.2h-40.2v-44c0-5-1.8-9.3-5.5-13s-8.1-5.5-13.2-5.5h-58.8c-11.3 0-20.8 4.3-28.2 13l.2-126c-10.3 0-19.2 3.7-26.8 11-7.5 7.3-11.2 16.2-11.2 26.5v138h-20.2c-2.8-7.7-7.5-12.5-14.3-14.5 0 12.2-1.6 22.9-4.9 32l-8 13.8c-4.3 4.4-9.4 6.7-15.6 6.7s-13-2.9-17.5-8.8c-4.3-5.3-6.3-11.6-6-18.8v-54.2c0-10.3-3.7-19.2-11-26.5s-16.2-11-26.5-11v81.2h-40.2v-44c0-5-1.8-9.3-5.5-13s-8.1-5.5-13.2-5.5h-58.7c-11.3 0-20.8 4.3-28.2 13l.2-126c-10.3 0-19.2 3.7-26.8 11-7.5 7.3-11.2 16.2-11.2 26.5v138h-50.5V95.7q0 12.75-19.8 19.8c-9.8 3.5-19.9 5.2-30.2 5.2h-16.8c-15.7 0-28.8 6.7-39.5 20-9.2 11.7-14.8 25.8-16.8 42.5h-45v-43.8c0-5.2-1.8-9.6-5.5-13.2-3.7-3.7-8.1-5.5-13.2-5.5H192c-11.3 0-20.8 4.2-28.2 12.8l-.2-125.8q-15.3 0-26.4 11.1t-11.1 26.4h.2v138H96.8L82 208.6c-.8 1.3-1.6 2.6-2.6 3.9-4.5 5.8-10.3 8.8-17.5 8.8-10.5 0-18.2-6.5-23.2-19.5-3.5-9.3-5.2-20.3-5.2-33-11.5 3.3-17.2 15.1-17.2 35.2s4.5 27.9 13.5 38.2 21 15.5 36 15.5 22.6-3.3 31.8-10 15.9-15.7 20.2-27h45.9V212l.2-53.8h68.2v62.5h445c4.3 11.3 11.1 20.3 20.2 27 9.2 6.7 19.8 10 31.8 10s27-5.2 36-15.5c5.5-6.3 9.3-13.4 11.4-21.5h208.3c4.3 11.3 11.1 20.3 20.2 27 9.2 6.7 19.8 10 31.8 10s27-5.2 36-15.5 13.5-23.1 13.5-38.2-5.8-31.9-17.2-35.2Zm-668.5 14.5h-48c1-5.8 2.9-11.1 5.8-15.8 3.7-6.2 8-9.2 13-9.2h29c0 3 0 7.2.2 12.5zm193.8 0h-68.7l.2-25h68.5zm307.7 0H833l.2-25h68.5v25Z" style="stroke-linecap:round;stroke-miterlimit:10;stroke-width:6px;fill:url(#m);stroke:url(#n)"/></svg>