<svg xmlns="http://www.w3.org/2000/svg" data-name="Layer 1" viewBox="0 0 420 420"><defs><clipPath id="a"><path d="M4.6 14.8h410.7v390.4H4.6z" style="fill:none;stroke-width:0"/></clipPath></defs><g style="clip-path:url(#a)"><path d="M377.9 156.7v27.1h-31.3v-54.1h40.1V75.9h-33.5V43.4h-53.8v40.1h-54.1V52.2h27.1V14.8h-38.1v26.6H4.6v11h229.7v42.3h65v24.2h-23.9v35.9h34.8v-24.4h25.2v64.5h42.3v210.5h11V194.9h26.6v-38.1h-37.5Zm-132.6-131h16.1v15.6h-16.1zm90.3 93.1h-24.7V94.6h24.7zm40.1-31.9v31.8h-29.1V86.9zm-65.3-32.4h31.8v29.1h-31.7V54.5Zm-11 89.2h-12.9v-13.4h12.9zm105 40.1h-15.6v-16.1h15.6z" style="stroke-width:0;fill:#c0902c"/></g></svg>