<svg xmlns="http://www.w3.org/2000/svg" data-name="Layer 1" viewBox="0 0 420 420"><defs><clipPath id="a"><path d="M14.8 4.6h390.4v410.7H14.8z" style="fill:none;stroke-width:0"/></clipPath></defs><g style="clip-path:url(#a)"><path d="M156.7 42.1h27.1v31.3h-54.1V33.3H75.9v33.5H43.4v53.8h40.1v54.1H52.2v-27.1H14.8v38.1h26.6v229.7h11V185.7h42.3v-65h24.2v23.9h35.9v-34.8h-24.4V84.6h64.5V42.3h210.5v-11H194.9V4.7h-38.1v37.5Zm-131 132.6v-16.1h15.6v16.1zm93.1-90.3v24.7H94.6V84.4zM86.9 44.3h31.8v29.1H86.9zm-32.4 65.3V77.8h29.1v31.9H54.5Zm89.2 11v12.9h-13.4v-12.9zm40.1-105v15.6h-16.1V15.6z" style="stroke-width:0;fill:#c0902c"/></g></svg>